<svg version="1.1" class="clearos-svg clearfoundation app-vendor-clearfoundation app-free app-category-server app-sub-category-messaging" viewBox="0 0 400 400" preserveAspectRatio="xMinYMin" xmlns="http://www.w3.org/2000/svg" xmlns:xlink= "http://www.w3.org/1999/xlink">
<path fill="#AA0707" d="M91.666,184.647"/>
<path fill="#AA0707" d="M123.245,247.805"/>
<path fill="#AA0707" d="M91.666,184.647"/>
<path fill="#AA0707" d="M123.245,247.805"/>
<g>
	<g>
		<path fill="#686868" d="M143.712,228.742l27.105-2.646c1.656,9.09,4.953,15.779,9.923,20.043
			c4.993,4.28,11.729,6.404,20.203,6.404c8.994,0,15.73-1.902,20.281-5.706c4.531-3.765,6.861-8.243,6.861-13.308
			c0-3.241-1.029-6.055-2.898-8.346c-1.902-2.3-5.23-4.297-10.02-5.953c-3.25-1.116-10.686-3.129-22.327-6.022
			c-14.932-3.717-25.418-8.274-31.441-13.664c-8.456-7.584-12.704-16.85-12.704-27.755c0-7.046,1.981-13.624,5.952-19.743
			c3.979-6.117,9.725-10.777,17.222-13.973c7.506-3.186,16.572-4.787,27.177-4.787c17.294,0,30.355,3.78,39.105,11.373
			c8.75,7.601,13.348,17.746,13.807,30.419l-27.865,1.204c-1.188-7.093-3.758-12.189-7.688-15.272
			c-3.932-3.099-9.797-4.659-17.667-4.659c-8.101,0-14.401,1.673-19.006,5.001c-2.988,2.141-4.414,4.993-4.414,8.552
			c0,3.266,1.379,6.056,4.137,8.378c3.535,2.972,12.039,6.023,25.647,9.217c13.553,3.18,23.539,6.491,30.02,9.915
			c6.5,3.424,11.619,8.101,15.232,14.028c3.709,5.92,5.563,13.229,5.563,21.979c0,7.887-2.234,15.288-6.578,22.199
			c-4.404,6.941-10.588,12.047-18.641,15.406c-8.02,3.359-18.021,5.041-30.021,5.041c-17.444,0-30.838-4.025-40.183-12.109
			C151.115,255.902,145.566,244.166,143.712,228.742z"/>
	</g>
	<polygon fill="#686868" points="199.81,321.527 128.257,268.252 2.383,361.979 397.252,361.979 271.377,268.252 	"/>
	<polygon fill="#686868" points="109.98,257.566 2.383,336.428 2.383,178.716 	"/>
	<polygon fill="#686868" points="289.654,257.566 397.252,336.428 397.252,178.716 	"/>
	<path fill="#686868" d="M83.042,141.156c0-7.664,6.229-13.83,13.847-13.83h210.916c7.654,0,13.854,6.182,13.854,13.83v28.342
		h75.959L202.377,38.021L7.106,169.498h75.951v-28.342H83.042z"/>
</g>
</svg>
